<?xml version="1.0" encoding="utf-8"?>
<!-- Generator: Adobe Illustrator 25.3.1, SVG Export Plug-In . SVG Version: 6.00 Build 0)  -->
<svg version="1.1" xmlns="http://www.w3.org/2000/svg" xmlns:xlink="http://www.w3.org/1999/xlink" x="0px" y="0px"
	 viewBox="0 0 1000 1000" style="enable-background:new 0 0 1000 1000;" xml:space="preserve">
<style type="text/css">
	.st0{opacity:0.29;}
	.st1{fill:#7FCDE2;stroke:#000000;stroke-width:6;stroke-miterlimit:10;}
	.st2{stroke:#7FCDE2;stroke-width:6;stroke-miterlimit:10;}
	.st3{opacity:0.18;}
	.st4{fill:#E5CC8C;}
	.st5{fill:none;stroke:#000000;stroke-width:6;stroke-linecap:round;stroke-linejoin:round;stroke-miterlimit:10;}
	.st6{opacity:0.1;}
	.st7{fill:#D3BDAF;}
	.st8{fill:#FFFFFF;}
	.st9{fill:#FFFDFD;stroke:#000000;stroke-width:6;stroke-miterlimit:10;}
	.st10{stroke:#FFFFFF;stroke-width:5;stroke-miterlimit:10;}
	.st11{fill:#897364;stroke:#000000;stroke-width:5;stroke-miterlimit:10;}
	.st12{fill:none;stroke:#000000;stroke-width:5;stroke-miterlimit:10;}
	.st13{fill:none;stroke:#000000;stroke-width:12;stroke-linecap:round;stroke-linejoin:round;stroke-miterlimit:10;}
	.st14{fill:#EFBB52;stroke:#000000;stroke-width:6;stroke-linecap:round;stroke-linejoin:round;stroke-miterlimit:10;}
	.st15{opacity:0.25;}
	.st16{fill:#DDDDDD;}
	.st17{clip-path:url(#SVGID_2_);fill:#FFFFFF;}
</style>
<g id="Layer_6">
	<ellipse class="st0" cx="492.2" cy="707" rx="118" ry="12.9"/>
</g>
<g id="Layer_7">
	<g>
		<ellipse class="st1" cx="397.4" cy="314.2" rx="32.6" ry="30.1"/>
		<circle class="st2" cx="395.6" cy="314.2" r="18.9"/>
		<path class="st3" d="M378.6,330.8c-0.7-0.3-7.3-9.4-4.6-23.1c2.7-13.8,23.7-24,39.4-8.3C429.1,315.1,392.7,336.9,378.6,330.8z"/>
	</g>
	<g>
		<ellipse class="st1" cx="588.4" cy="314.2" rx="32.6" ry="30.1"/>
		<circle class="st2" cx="590.2" cy="314.2" r="18.9"/>
		<path class="st3" d="M607.2,330.8c0.7-0.3,7.3-9.4,4.6-23.1c-2.7-13.8-23.7-24-39.4-8.3S593.1,336.9,607.2,330.8z"/>
	</g>
</g>
<g id="Layer_5">
	<g>
		<path class="st4" d="M414.1,665.1c0.7,0,7.1,2.9,11.1,4.2c4,1.3,3-0.6,1.8,10.8s-0.8,19.9-7.1,22.9s-21.2,4-26,4.6
			c-4.8,0.6-8.3-4.2-12.6-6.2c-4.3-2-8-3.9-7.5-8c0.4-4.1,0.2-7.5,4.1-10.3s10-5.9,15.2-10.2c5.2-4.2,5.3-4.9,8.3-9.3
			C404.2,659.3,414.1,665.1,414.1,665.1z"/>
		<path class="st5" d="M436.5,661.7c0,0-10.9,8.4-11.3,23.1s1.8,20-10.3,21.1c-14.3,1.3-29.1,4-29.8-2c-0.7-6-2-15.9,12.9-14.7"/>
		<path class="st5" d="M384.7,702c0,0-12.2,0-10.1-10.3c2.3-10.8,6.1-12.4,16.7-17.7c10.1-5.1,10.9-11.3,13.9-26.4"/>
		<path class="st6" d="M400.9,669.5c0.3,0.9,7.5,4.6,12.4,7.4c4.9,2.8,11,13.3,11,13.3l3.2-13.6l0.6-2.5c0,0,1.5-2.1-4.6-4.6
			c-6.1-2.4-16.3-6.4-16.3-6.4l-2.5-1.1C404.6,662,399.7,666.3,400.9,669.5z"/>
		<path class="st6" d="M400.7,689.5c0.6,0.3-1.4-7.8-8.1-8.1c-6.7-0.3-14.2,4.2-15.5,9.6c-1.4,5.4-1.8,5.8,1,8.6
			c2.8,2.8,6,1.9,6.9-2.8C385.9,692.1,396,687,400.7,689.5z"/>
	</g>
	<g>
		<path class="st4" d="M571.1,665.1c-0.7,0-7.1,2.9-11.1,4.2s-3-0.6-1.8,10.8c1.2,11.4,0.8,19.9,7.1,22.9s21.2,4,26,4.6
			c4.8,0.6,8.3-4.2,12.6-6.2c4.3-2,8-3.9,7.5-8c-0.4-4.1-0.2-7.5-4.1-10.3c-3.9-2.8-10-5.9-15.2-10.2c-5.2-4.2-5.3-4.9-8.3-9.3
			C581,659.3,571.1,665.1,571.1,665.1z"/>
		<path class="st5" d="M548.7,661.7c0,0,10.9,8.4,11.3,23.1s-1.8,20,10.3,21.1c14.3,1.3,29.1,4,29.8-2c0.7-6,2-15.9-12.9-14.7"/>
		<path class="st5" d="M600.5,702c0,0,12.2,0,10.1-10.3c-2.3-10.8-6.1-12.4-16.7-17.7c-10.1-5.1-10.9-11.3-13.9-26.4"/>
		<path class="st6" d="M584.3,669.5c-0.3,0.9-7.5,4.6-12.4,7.4c-4.9,2.8-11,13.3-11,13.3l-3.2-13.6l-0.6-2.5c0,0-1.5-2.1,4.6-4.6
			c6.1-2.4,16.3-6.4,16.3-6.4l2.5-1.1C580.6,662,585.5,666.3,584.3,669.5z"/>
		<path class="st6" d="M584.5,689.5c-0.6,0.3,1.4-7.8,8.1-8.1c6.7-0.3,14.2,4.2,15.5,9.6c1.4,5.4,1.8,5.8-1,8.6s-6,1.9-6.9-2.8
			C599.3,692.1,589.2,687,584.5,689.5z"/>
	</g>
</g>
<g id="Layer_1">
	<path class="st1" d="M492.6,693c-125-11.4-139.5-107-124-182.9c17.2-84.6-13.1-148,18.8-188.6c12-15.2,29.8-25.2,47.3-31.8
		c37.3-13.9,78.5-13.9,115.7,0c17.6,6.5,35.3,16.5,47.3,31.8c31.9,40.7,1.6,104.1,18.8,188.6C632.1,586.1,617.6,681.7,492.6,693z"/>
	<path class="st7" d="M483.1,406c0,0-16.7,3.8-23.8,11.4s-6.2,17,0,21.1s13.2,5.2,19.4,3.6c6.3-1.5,12.4-4.3,17.8-2.7
		s15.4,4.4,19.9,3.6c4.5-0.8,9-3.5,11.3-7.3c2.2-3.8,4-12.5-0.4-16.7s-18.5-11.3-25.7-13.1C494.4,404.2,483.1,406,483.1,406z"/>
	<path class="st8" d="M503.5,441.5c0,0-6.5-2.6-11.8-2.5c-5.3,0.2-7.3,3.3-10.4,4.1s-4.2,0.9-4,4.5c0.2,3.6,3.8,15.5,7.3,20
		s12.5,3,14.5,0.8c2.1-2.2,7.3-9.9,7.8-13.3C507.5,451.8,509.4,443.3,503.5,441.5"/>
	<path class="st6" d="M539,415c-0.8,1.2,40.1,61.2,45.1,86.6c10,51-5.3,93.7-22.5,132.5c-17.2,38.7-37.2,50-64.9,58.6
		c0,0,65.3-2.9,97.5-47.9c32.2-45.1,29.2-67.2,27.5-90.9s-8.3-57.1-9.4-73.6c-1.1-16.5-1.4-29.8-1-50.3S539,415,539,415z"/>
	<path class="st6" d="M541.3,414.3c0.4,0.5,7.2,23,30,32.3c22.8,9.3,38.9,4,38.9,4l1.3-26.4l-14.6-16.2L541.3,414.3z"/>
	<path class="st6" d="M458.1,435.4c-0.1-0.4,13.6,6,23.1,0.1c9.4-5.9,15-6.9,22-3.4c7,3.6,14.8,4,17.5-2.2c2.7-6.3-7.7-8.8-13.6-6.5
		c-6,2.3-20.9,7.8-28.3-6.4c9.8,4.5,19.7,0.8,23-4.8c3.3-5.7,2.9-12.3-4.4-14.7s11,0.6,12.8,5.5s-0.1,6.8,6.9,9.3
		c7,2.5,13.6,7,13.2,12.7s-4.2,18.1-10.6,18s-14.4-1.5-19.3-2.5c-4.9-1-13.3-1.6-18,0.8C477.5,443.8,461.2,444.3,458.1,435.4z"/>
</g>
<g id="Layer_2">
	<circle class="st9" cx="578.7" cy="385.6" r="47.2"/>
	<circle class="st10" cx="569.5" cy="393.6" r="12.8"/>
	<ellipse class="st11" cx="492.6" cy="408.1" rx="19.2" ry="11.9"/>
	<path class="st12" d="M492.6,440.1c0,0,0,29.8,0,30.1c0,0,9,0.2,12.6-8.7c3.6-8.9,2.4-19.2,2.4-19.2"/>
	<circle class="st9" cx="406.5" cy="385.6" r="47.2"/>
	<circle class="st10" cx="415.7" cy="393.6" r="12.8"/>
	<path class="st12" d="M473.7,410.3c-24.2,6.3-20.5,21.8-13.1,29.7c7.3,8,32-1.9,32-1.9s24.7,9.9,32,1.9s11.1-23.5-13.1-29.7"/>
	<path class="st12" d="M492.6,440.1c0,0,0,29.8,0,30.1c0,0-9,0.2-12.6-8.7c-3.6-8.9-2.4-19.2-2.4-19.2"/>
	<path class="st3" d="M561.5,429.5c0,0,32.6-12.7,39.6-41.2c7-28.5-4.4-46.3-4.4-46.3s25.5,13,29.1,31.4
		c3.6,18.5-4.3,44.7-21.3,51.6C587.5,431.9,561.5,429.5,561.5,429.5z"/>
	<path class="st3" d="M411.2,338.7c-0.2,0,14.7,12.6,12.7,51.6c-1,20.6-20.4,34.3-33.6,39.6c37.5,3.2,53.7-6.3,61-29.7
		C458.6,376.9,443,342.6,411.2,338.7z"/>
	<path class="st6" d="M484.7,467.7c0,0,5.4,13,21,7.8c15.6-5.2,13.8-20.7,13.8-20.7s16.8-2.7,19-17.1s-10-19.5-13.5-21.2
		c6.3,5.6,8.4,12.8,5.1,16.2c-3.3,3.4-5.2,10.4-10.5,10.4c-5.2,0-11.4-1.9-11.7,3.5c-0.3,5.4-0.6,13.9-3.5,18.6
		C501.5,470,489.1,472.9,484.7,467.7z"/>
</g>
<g id="Layer_3">
	<g>
		<path class="st13" d="M568.6,612.7H419.8V495.6c0-6.2,5-11.2,11.2-11.2h126.3c6.2,0,11.2,5,11.2,11.2V612.7z"/>
		<path class="st14" d="M582.4,664.5H405c-13.4,0-24.2-10.8-24.2-24.2V536.6c0-13.4,10.8-24.2,24.2-24.2h177.4
			c13.4,0,24.2,10.8,24.2,24.2v103.7C606.6,653.6,595.7,664.5,582.4,664.5z"/>
		<path class="st15" d="M470,512.4c-0.2,0-58.7,0-58.7,0l-15.4,1.6l-2.9-0.5c0,0-15,6.8-3.9,11.6c11.1,4.8,47.5,35.4,47.5,35.4
			s30.3,25.8,35.4,30.1c5,4.3,6.7,6.2,12,4.6c5.3-1.7,12.2-2.1,15.8-1.2c3.7,0.8,6.7,4.8,13.5-2.8c6.8-7.7,68.9-58.6,68.9-58.6
			l12-5.4l6.7-2.8c0,0,3.9-2.3,2-4.4c-1.9-2.2-7.4-5.9-7.4-5.9l-5.2,0l-2.4-1.6H470z"/>
		<path class="st16" d="M540.8,567.3c0.7-0.6,1.3-1.2,1.9-1.8c0.6-0.8,1.2-1.5,1.9-2.2c0.1-0.1,0.2-0.2,0.3-0.3c-0.2,0-0.3,0-0.5,0
			h-97.5c-1.3,0-2.4,1.1-2.4,2.4s1.1,2.4,2.4,2.4h93.7C540.6,567.5,540.7,567.4,540.8,567.3z"/>
		<g>
			<defs>
				<path id="SVGID_1_" d="M573.6,540.7L511.4,593c0,0-2.3,3.9-7.8,2.2c-5.5-1.7-8.1-6.1-15.4-2.2c-7.3,3.9-10,5.1-14.6,0
					s-67.2-58.1-67.2-58.1l-2.1-43.8l13.8-6.8c0,0,135.8-16.1,144.7-9.9c8.9,6.3,18.2,9.9,18.2,9.9l8.6,5.8L573.6,540.7z"/>
			</defs>
			<clipPath id="SVGID_2_">
				<use xlink:href="#SVGID_1_"  style="overflow:visible;"/>
			</clipPath>
			<path class="st17" d="M568.6,612.7H419.8V495.6c0-6.2,5-11.2,11.2-11.2h126.3c6.2,0,11.2,5,11.2,11.2V612.7z"/>
		</g>
		<path class="st5" d="M386.4,659.1l94.4-62.3c7.8-5.1,17.9-5.1,25.7,0l94.4,62.3"/>
		<path class="st5" d="M479.5,596.9l-75.8-64.4c-6.4-5.4-14.5-8.4-22.9-8.4l0,0"/>
		<path class="st5" d="M506.5,596.9l75.8-64.4c6.4-5.4,14.5-8.4,22.9-8.4l0,0"/>
		<g>
			<path class="st16" d="M446.9,518.3h97.5c1.3,0,2.4-1.1,2.4-2.4s-1.1-2.4-2.4-2.4h-97.5c-1.3,0-2.4,1.1-2.4,2.4
				S445.6,518.3,446.9,518.3z"/>
			<path class="st16" d="M544.4,530h-97.5c-1.3,0-2.4,1.1-2.4,2.4c0,1.3,1.1,2.4,2.4,2.4h97.5c1.3,0,2.4-1.1,2.4-2.4
				C546.7,531.1,545.7,530,544.4,530z"/>
			<path class="st16" d="M544.4,546.5h-97.5c-1.3,0-2.4,1.1-2.4,2.4s1.1,2.4,2.4,2.4h97.5c1.3,0,2.4-1.1,2.4-2.4
				S545.7,546.5,544.4,546.5z"/>
		</g>
	</g>
</g>
<g id="Layer_4">
	<g>
		<path class="st4" d="M363.4,498.1l4.8-1c0,0-4.8,24.9-5.1,26.5s0,2.1,0,2.1l10.3,4c0,0,9.7,4.8,11.6,11.9c1.9,7,1.5,8,0.5,9.4
			c-1,1.5-2,2-0.1,6.5s2.1,8.1-1.4,11.1c-3.5,2.9-16.6,3.8-20.7,1.6c-4.1-2.1-15.9-8.7-18.4-11.9c-2.5-3.2-7.4-12.2-8.1-19.2
			c-0.7-7-2-15.1-1.2-18.5c0.8-3.4,5.1-11.7,5.1-11.7l6.1-5.3l6.3-3.5L363.4,498.1z"/>
		<path class="st5" d="M355.8,525.2c0.5,0.2,24.5,1.5,29.4,17c4.9,15.5-9.5,13.1-14.7,9.5"/>
		<path class="st5" d="M382.2,553.9c1.2,0.6,11.5,11-0.5,16c-12,4.9-35-3.7-41.6-18.8c-6.6-15.2-7.7-34.4,2.4-43.9
			c10-9.5,28.8-12.8,28.8-12.8"/>
		<path class="st6" d="M386.2,564.4c0.1-0.3-15.4,2.3-28.8-6.2c-13.5-8.5-22-29.6-17.4-44.7c-6,12.3-5.5,24.5-1.6,32.9
			c3.8,8.4,14.9,18.1,21.7,21.1C366.8,570.5,383.6,575.5,386.2,564.4z"/>
		<path class="st6" d="M384.2,543.1c0.7,0.5,2.9,7.6-11.3,3.3s-14.7,5.9-10.4,9.6c4.2,3.7,21.7,2.9,21.7,2.9V543.1z"/>
		<path class="st6" d="M361.8,498.4c0,0,0.2,7.7-6.8,12.1c-7.1,4.4-10.1,13.4-6.3,16.9c3.8,3.5,14.2,0.5,14.2,0.5l5.3-30.8
			L361.8,498.4z"/>
	</g>
	<g>
		<path class="st4" d="M621.7,498.1l-4.8-1c0,0,4.8,24.9,5.1,26.5c0.4,1.6,0,2.1,0,2.1l-10.3,4c0,0-9.7,4.8-11.6,11.9
			c-1.9,7-1.5,8-0.5,9.4c1,1.5,2,2,0.1,6.5s-2.1,8.1,1.4,11.1c3.5,2.9,16.6,3.8,20.7,1.6c4.1-2.1,15.9-8.7,18.4-11.9
			c2.5-3.2,7.4-12.2,8.1-19.2s2-15.1,1.2-18.5c-0.8-3.4-5.1-11.7-5.1-11.7l-6.1-5.3l-6.3-3.5L621.7,498.1z"/>
		<path class="st5" d="M629.3,525.3c-0.5,0.2-24.5,1.5-29.4,17c-4.9,15.5,9.5,13.1,14.7,9.5"/>
		<path class="st5" d="M602.9,554c-1.2,0.6-11.5,11,0.5,16s35-3.7,41.6-18.8c6.6-15.2,7.7-34.4-2.4-43.9
			c-10-9.5-28.8-12.8-28.8-12.8"/>
		<path class="st6" d="M598.9,564.5c-0.1-0.3,15.4,2.3,28.8-6.2c13.5-8.5,22-29.6,17.4-44.7c6,12.3,5.5,24.5,1.6,32.9
			c-3.8,8.4-14.9,18.1-21.7,21.1C618.3,570.6,601.5,575.6,598.9,564.5z"/>
		<path class="st6" d="M600.9,543.2c-0.7,0.5-2.9,7.6,11.3,3.3s14.7,5.9,10.4,9.6s-21.7,2.9-21.7,2.9V543.2z"/>
		<path class="st6" d="M623.3,498.5c0,0-0.2,7.7,6.8,12.1c7.1,4.4,10.1,13.4,6.3,16.9c-3.8,3.5-14.2,0.5-14.2,0.5l-5.3-30.8
			L623.3,498.5z"/>
	</g>
</g>
</svg>
